# xmcd
#
# Track frame offsets:
#	150
#	19202
#	30106
#	47153
#	66011
#	83769
#	97968
#	115787
#	130254
#	152850
#	172755
#	187590
#	206641
#	226367
#	255352
#	274296
#	305064
#
# Disc length: 4082 seconds
#
# Revision: 2
# Processed by: cddbd v1.5.2PL0 Copyright (c) Steve Scherf et al.
# Submitted via: audiograbber 1.83.01
#
DISCID=d20ff011
DTITLE=Chartbuster - ESP482-03  Hits of 2003
DYEAR=2003
DGENRE=Country
TTITLE0=Toby Keith - I Love This Bar
TTITLE1=Tracy Byrd - Drinkin' Bone
TTITLE2=Kenny Chesney - No Shirt No Shoes No Problem
TTITLE3=Joe Nichols - Brokenheartsville
TTITLE4=Jimmy Wayne - Stay Gone
TTITLE5=George Starit - She"ll Leave You With A Smile
TTITLE6=Gary Allan - Man To Man
TTITLE7=Tracey Byrd and Andy Griggs - The Truth About Men
TTITLE8=Montgomery Gentry - Hell Yea
TTITLE9=Tim McGraw - Real Good Man
TTITLE10=Rascal Flatts - Love You Out Loud
TTITLE11=Montgomery Gentry - Speed
TTITLE12=Trace Adkins - Then They Do
TTITLE13=Brad Paisley - I Wish You'd Stay
TTITLE14=Blake Shelton - Baby, The
TTITLE15=Josh Turner - Long Black Train
TTITLE16=na - na
EXTD=Karaoke
EXTT0=
EXTT1=
EXTT2=
EXTT3=
EXTT4=
EXTT5=
EXTT6=
EXTT7=
EXTT8=
EXTT9=
EXTT10=
EXTT11=
EXTT12=
EXTT13=
EXTT14=
EXTT15=
EXTT16=
PLAYORDER=
